<svg version="1" xmlns="http://www.w3.org/2000/svg" width="832" height="832" viewBox="0 0 624.000000 624.000000"><path d="M311.9 2.2c-.1 1.7-1 6.6-2.5 13.8-.2.8-.6 3.1-.9 5-.2 1.9-.9 5-1.4 6.8-.5 1.8-1 3.5-1 3.7.1.5-1 7.5-1.6 10.5-.2.8-1.7 8.9-3.5 18-1.7 9.1-3.6 18.5-4.1 21-.6 2.5-1.3 5.8-1.5 7.5-.4 2.8-.6 4.1-1.9 10.5-.2 1.4-.7 3.6-.9 5-1 5.9-3.6 17.3-4 17.7-.2.3-.7-.6-1.1-1.9-.7-2.4-1.2-3.9-3.9-10-.9-2-1.6-3.9-1.6-4.3 0-.4-.7-2.1-1.5-3.8-.8-1.8-5.3-12.7-9.9-24.2-4.7-11.6-8.6-20.3-8.6-19.5-.2 2-.2 21.5 0 47.3.1 11.5-.1 21.1-.4 21.4-.3.3-6.2-8.2-13.2-18.8-7-10.7-20-30.4-28.9-43.9-8.9-13.5-18.3-27.8-20.9-31.8-2.7-4-5-7.2-5.1-7-.2.2.4 3.2 1.2 6.8.8 3.6 1.6 7.6 1.8 9 .2 1.4 1.1 5.4 1.9 9 .8 3.6 1.8 7.9 2.1 9.7.4 2.5 4.8 23.6 8 39 .3 1.3.7 3.5 1 5 .3 1.6 1.7 8 3 14.3 2.8 13.3 5.5 26.7 5.5 27.4 0 .2-10-9.7-22.2-22.1-25.8-26.1-27.1-27.4-27.6-26.9-.2.2.1 1.2.7 2.3 1.2 2.2 2.8 6 7.7 17.8 2 4.9 4.4 10.8 5.4 13 1 2.2 3.7 8.5 6 14 4.3 10.2 6.9 16.3 7.8 17.9.3.5-1-.1-2.9-1.5-1.9-1.3-4.2-2.9-5.1-3.4-.9-.6-8.6-5.7-17-11.4-8.4-5.8-18.1-12.4-21.6-14.8-3.5-2.4-6.7-4.3-7.3-4.3-.5 0-.9-.4-.9-.8 0-.5-1.6-1.7-3.5-2.8-1.9-1-3.5-2.2-3.5-2.6 0-.3-.9-1-2-1.3-1.1-.3-2.6-1.2-3.3-1.8-2.4-2.3-10.5-7.7-11.5-7.7-.6 0-1.2-.4-1.4-.8-.5-1.2-23-16.3-22.6-15.2.3 1.1 13.1 20.1 39.1 58.1 9.7 14.3 17.7 26.5 17.7 27s.3.9.8.9c.4 0 2 2.1 3.7 4.8 1.6 2.6 3.2 4.9 3.5 5.2 1.1 1 4.2 6.2 3.4 5.8-.5-.3-2.5-1.2-4.4-2-1.9-.9-6.1-2.7-9.3-4.2-3.2-1.4-6-2.6-6.3-2.6-.3 0-5.1-2-10.7-4.4-5.6-2.4-14.9-6.3-20.7-8.7-5.8-2.3-11.1-4.7-11.7-5.2-.8-.6-1.3-.6-1.3 0s3.9 4.9 8.8 9.6c4.8 4.7 16.1 15.8 25.2 24.7 9 8.8 15.8 15.9 15 15.6-.8-.3-3.2-.8-5.4-1.1-2.1-.3-4.1-.7-4.5-.9-.3-.2-2.4-.7-4.6-1-2.2-.4-9.2-1.7-15.5-3.1-6.3-1.3-12.6-2.6-14-2.9-1.4-.2-6.1-1.2-10.5-2.1-4.4-.9-8.9-1.9-10-2.1-1.1-.2-3.1-.6-4.5-.9-1.4-.3-5.6-1.2-9.5-2-3.8-.8-7.9-1.6-9-1.9-7-1.5-18.5-3.9-21-4.3-1.6-.2-4.6-.8-6.5-1.4-6.5-1.7-6.3-.9 1.1 4 4.1 2.7 16.9 11.1 28.5 18.8l21.1 13.9h230.9l230.9-.1 16.9-11.2c9.4-6.1 17.7-11.6 18.5-12.2.9-.6 6.1-4 11.5-7.6 5.5-3.6 9.6-6.5 9-6.5-.5 0-4 .7-7.9 1.5-3.8.9-8.1 1.7-9.5 2-5.1.9-41.6 8.5-43 9-.8.2-3.1.7-5 1-1.9.3-6.9 1.3-11 2.1-4.1.9-8.4 1.8-9.5 2-1.1.2-4 .8-6.5 1.4-2.5.5-5.6 1.2-7 1.4-1.4.2-4.5.9-7 1.5-2.5.5-5.7 1.2-7.3 1.5-1.5.2-3.7.8-5 1.1-1.2.4 8.6-10.1 21.8-23.2 13.2-13.2 24.6-24.7 25.3-25.6.8-.9-5.4 1.3-14 4.9-8.4 3.6-18 7.7-21.3 9.1-3.3 1.3-6.9 2.8-8 3.3-1.1.5-4 1.8-6.5 2.8-2.5 1.1-6.7 2.9-9.4 4.1-5.8 2.5-6.2 2.6-4.5.5.7-.9 1.8-2.5 2.4-3.5.5-1 4.2-6.5 8-12.1 9.8-14.2 29.4-43.2 37.9-55.8 3.9-5.8 7.4-10.7 7.8-10.8.5-.2.8-.8.8-1.3 0-.6.5-1.5 1-2.2 2.5-2.9 9.9-14.2 9.5-14.5-.4-.4-11.6 7-48.5 32.4-12.4 8.5-23.2 15.7-24 16.1-.8.4-1.7.9-2 1.2-.5.6-23.4 16.1-25.8 17.5-1 .6-1 .1.1-2.6.8-1.8 3.8-8.9 6.7-15.8 2.9-6.9 6.1-14.5 7.2-17 5.3-11.9 11.8-27.7 11.8-28.6 0-.4-11.3 10.7-25 24.7-26.1 26.4-25.3 25.9-23.5 16.9.2-1.4.8-3.9 1.1-5.5.4-1.7.8-3.9 1-5 .1-1.1 1-5.4 1.9-9.5.9-4.1 1.8-8.6 2.1-10 .2-1.4.7-3.6 1-5 1.1-4.9 1.5-6.5 1.9-9.2.2-1.5.6-3.5.9-4.5.3-1 .7-2.9 1-4.3.2-1.4 1.2-6.1 2.1-10.5.9-4.4 1.8-8.9 2.1-10 .2-1.1.6-3.1.9-4.5.3-1.4.7-3.4.9-4.5.3-1.1.9-4 1.5-6.5.5-2.5 1.2-5.9 1.6-7.7.3-1.8 1.1-6.2 1.9-9.8.7-3.6 1.2-6.5 1-6.5-.4 0-13.3 19.3-14.4 21.5-.7 1.3-16.7 25.7-17.8 27-.4.5-1.9 2.8-3.2 5-1.3 2.2-2.8 4.4-3.3 5-2 2.3-27.7 41.9-27.7 42.7 0 .4-.4.8-.9.8s-.8-14.5-.6-34.6c.1-19-.1-34.2-.5-33.7-.4.4-3.3 6.9-6.3 14.3-3.1 7.4-8.3 20.1-11.6 28.1-3.3 8.1-6.3 15.9-6.7 17.3-.3 1.4-1.2 2.6-2 2.6s-1.3-.3-1.2-.8c.2-.6-.8-7-1.9-11.7-.2-1.1-.6-2.9-.8-4-.2-1.1-.6-3.4-1-5-1-5.1-3.5-18.8-4.1-22.5-.3-1.9-.8-3.8-1-4.1-.2-.4-.6-2.8-.9-5.5-.4-2.6-.8-5.1-1-5.4-.4-.6-1.3-5.1-2-9.5-.3-2.1-6.1-32.2-7-36.5-.3-1.4-1-5.3-1.6-8.8-1-5.8-1.8-7.8-2-5zM155.7 255.7c-.1.1-3 .4-6.5.7-3.4.3-7.3.8-8.5 1.1-1.2.3-3.5.7-5.2.9-1.6.3-4.1.7-5.5 1.1-1.4.3-3.5.8-4.7 1.1-1.2.2-4.2 1.3-6.7 2.4-2.6 1.1-5 2-5.4 2.1-5.9 1.1-23.2 17.1-23.2 21.4 0 .8-.4 1.5-.8 1.5-2 0-7.7 17.8-8.8 27.5-.8 7.3-.8 6.2 0 16.3 1 12.6 5.7 21.6 15.2 29.2 2.4 2 11.1 5.7 15.5 6.7 6.5 1.5 27 .8 33.4-1.1 7-2.1 16.5-6.6 16.5-7.8 0-.4.5-.8 1-.8 2.8 0 10.5-10.5 12.9-17.8 4.2-12.4 2-25.7-5.4-32.7-9.4-8.8-29.6-11.6-41.6-5.7l-3.6 1.8.9-3.5c3.3-11.7 14.6-17.1 36.5-17.1 10.9 0 11.3-.1 11.7-2.3 1.9-8.7 2.8-13.7 3.2-16.7.2-1.9.7-4.8 1-6.3l.6-2.8-11.2.3c-6.1.2-11.2.4-11.3.5zm-20.8 66.8c4 3.6 3.8 13.2-.4 18.1-3.1 3.6-10 4.4-13.4 1.6-2-1.5-2.4-2.9-2.6-7.8-.2-6.8 1.4-10.7 5.2-12.7 3.5-1.9 8.8-1.5 11.2.8zM266 256.3c-2.6.8-8.4 6-22 19.7-36.7 37.1-45 45.9-45.1 47.7 0 1-.3 2.7-.5 3.8-.7 3.2-1.2 5.7-1.9 10.5-.4 2.5-1.1 6-1.5 7.9-.5 1.9-.7 3.7-.4 4 .3.3 13.1.6 28.4.6 15.3 0 28.1.2 28.3.5.3.3-.1 3.6-.9 7.5-2.2 11.6-4.2 10.5 18.6 10.5 11 0 20-.3 20.1-.8 0-.4.2-1.6.5-2.7.2-1.1.6-4 1-6.5 1.2-8.3 1.7-8.9 7.2-8.5 6 .3 6.9-.2 7.6-4 .3-1.7 1.6-7.8 2.9-13.8 1.3-5.9 2.1-10.7 1.8-10.8-.3-.1-3.1-.2-6.1-.4-3-.1-5.8-.3-6.1-.4-.3 0 0-3.1.8-6.9.7-3.7 1.5-8.1 1.8-9.7.2-1.7.7-4.4 1-6 1.4-7.3 2.6-14.2 3-16.7.4-2.6 2-11.5 3-16.8.3-1.3.7-4.1 1-6.2l.6-3.9-19.8.2c-10.9.1-21.4.6-23.3 1.2zm-1 38.4c-.6 2.6-1.4 5.7-1.6 6.8-.7 3.3-1.2 5.6-3.1 13.5l-1.8 7.5-10.8.1c-5.9 0-10.7-.2-10.7-.4 0-.4 9.5-11.4 13-15.2 4.9-5.2 14.6-16.4 14.9-17.2.1-.5.5-.7.8-.4.3.3 0 2.7-.7 5.3zM337.6 256.7c-.3 1-.7 3.6-1 5.8-.4 2.2-.8 5.1-1.1 6.5-1.4 6.5-1.6 7.8-2.2 11.7l-.6 4.3h23.7c13 0 23.6.2 23.6.5s-3.5 5.9-7.7 12.5c-4.3 6.5-9.4 14.5-11.4 17.7-2 3.2-10.2 16.1-18.3 28.6-8 12.6-14.6 23.2-14.6 23.6 0 .4 9.7.8 21.5.8l21.5-.1 28.1-43.8c26.8-42 29.4-46.4 30.5-53.3.3-1.7.7-4.1.9-5.4.2-1.3.7-4.4 1.1-6.8l.6-4.3h-47c-44 0-47.1.1-47.6 1.7zM489.7 255.7c-.2.1-2.1.5-4.3.8-9.8 1.5-20.6 6.9-27.1 13.7-6.8 7.1-9.6 13.9-10.7 25.8-.4 4 2.3 14 4.5 17.2 4.2 5.8 12 10.1 20.9 11.5 10.8 1.6 16.4.9 26.3-3.2 2.1-.9 2.1-.7-.3 5.8-2.6 6.8-6.7 10.7-13.3 12.4-1.2.3-8.7.7-16.6.9-7.9.2-14.7.6-15 .9-.2.3-.6 1.1-.7 1.8-.2 1.4-2.2 12.2-2.9 15.7-.3 1.3-.7 4.1-1 6.1l-.6 3.8 10.8-.4c12-.4 19.8-1 25.8-2 6.8-1.1 20.4-4.4 22.2-5.4 1-.5 4.3-2.1 7.3-3.5s7.7-4.7 10.4-7.3c4.6-4.5 10.6-12.4 10.6-13.9 0-.4.6-1.5 1.3-2.3 1.5-1.8 5.3-12.9 6.2-18.1 1.4-7.9 1.5-25.1.1-30.8-1.5-6.3-4.4-13.3-6-14.4-.6-.4-.7-.8-.3-.8 1.7 0-7-7.2-11.5-9.5-6.9-3.6-13-4.8-25.1-5-5.9-.1-10.9 0-11 .2zM503 281c4 2.1 4.8 11.7 1.4 18.1-2.7 5.2-11.2 6-15.1 1.5-4.1-4.8-2.1-16.4 3.3-19.1 3-1.5 8.1-1.7 10.4-.5zM72.1 399.7c-5.3 3.4-10.3 6.7-11.2 7.4-1.3.9-17.2 11.5-21.7 14.4-15.8 10.3-15.6 10-6.2 7.9 1.4-.3 8.1-1.7 15-3 14.8-3 13.4-2.8 23.5-4.9 4.4-.9 9-1.9 10.3-2.1 1.2-.2 3.2-.6 4.5-.8 1.2-.2 4.2-.9 6.7-1.5 2.5-.5 6.1-1.3 8-1.6 1.9-.3 6.4-1.2 10-2 3.6-.8 7.6-1.7 9-1.9 1.4-.3 3.6-.7 5-1 1.4-.3 4.1-.9 6-1.2 4-.8 5-1 10.5-2.3 2.2-.6 4.1-.9 4.2-.7.3.3-5 5.6-35.6 35.6-7.3 7.2-13.1 13.3-12.9 13.6.4.3 16.1-6.1 27.3-11.1 3.9-1.8 7.8-3.2 8.8-3.3.4-.1 2-.8 3.5-1.6 2.7-1.5 24-10.6 24.8-10.6.5 0-2.7 5.2-3.6 6-.4.3-3.3 4.5-6.5 9.5-3.3 4.9-6.3 9.1-6.7 9.3-.5.2-.8.8-.8 1.3 0 .6-.5 1.5-1 2.2-.6.7-3.8 5.2-7 10.2-3.3 4.9-6.4 9.5-6.8 10.1-.5.5-2.2 3-3.8 5.5-1.6 2.4-3.3 4.9-3.9 5.6-.5.7-1.6 1.9-2.2 2.7-.7.8-1.3 1.7-1.3 2 0 .5-14.9 22.8-16.7 25.1-2.3 2.8-8.4 12.7-8.1 13 .2.2 1.5-.5 2.8-1.6 2.4-1.9 23.2-16 71.5-48.6 12.7-8.6 23.8-16.3 24.8-17.1 2.6-2.3 2.8-1.2.5 3.7-1.1 2.5-2.1 5-2.3 5.5-.1.6-1 2.8-1.9 4.9-.9 2.1-2.8 6.3-4.1 9.4-1.4 3-2.5 6.2-2.5 6.9 0 .8-.5 1.4-1.2 1.4-.6 0-.9.2-.6.5.3.3-2.3 7.2-5.8 15.2-3.5 8.1-6.2 14.9-5.9 15.1.2.3 11.5-10.7 25-24.4s24.5-24.6 24.5-24.2c0 .3-.9 5-2 10.4-1.1 5.5-2.3 11-2.5 12.4-.3 1.4-.7 3.4-.9 4.5-.3 1.1-1.5 6.7-2.6 12.5-2.6 12.6-2.8 13.9-3.5 16.8-.3 1.2-.7 3-.9 4.1-.2 1-.7 3.5-1 5.6-.4 2-.8 4.1-1.1 4.5-.2.4-.6 2.2-.9 4.1-.2 1.9-.9 5.2-1.4 7.4-.6 2.2-1.3 5.7-1.6 7.9-.4 2.1-.8 4.1-1 4.5-.2.3-.7 2.3-1 4.3-.3 2.1-1 5.8-1.6 8.3-.6 2.5-1.3 6.2-1.6 8.3-.3 2-.8 4.1-1.2 4.6-.3.5 0 .6.7.2.6-.4 1.8-2.1 2.7-3.8.9-1.7 2-3.6 2.6-4.2.5-.6 7.5-11 15.4-23.1 8-12.1 19.5-29.7 25.7-39 6.2-9.4 11.4-17.5 11.6-18 .2-.6.7-1.2 1-1.5.4-.3 2.2-2.9 4-5.8 1.8-2.8 3.7-5.2 4.1-5.2.4 0 .6 15.6.5 34.7l-.3 34.8 2.5-5.5c1.3-3 4.7-11.1 7.4-18s5.9-14.4 6.9-16.7c1.1-2.4 2-4.9 2-5.6 0-.7.4-1.7.8-2.2.8-.9 5.2-11.5 6.6-15.8.6-1.9 2.8-1.4 2.4.6-.1.7.1 2.5.5 4.2.6 3 .9 4 2.7 14 .5 2.7 1.2 6.1 1.4 7.5 1.9 8.6 2.8 13.6 3.1 15.4.1 1.2.5 3.2.9 4.6.3 1.4.8 3.8 1.1 5.5.3 1.6 1 5.7 1.6 9 .6 3.3 1.3 7.1 1.5 8.5.3 1.4.7 3.3 1 4.3.3 1 .7 3.2 1 5 .2 1.8.8 5.4 1.4 8.2 1.4 6.7 1.7 8.2 4.1 21.3 1.2 6.2 2.3 11.1 2.5 10.9.2-.2.6-1.9.8-3.8.3-1.9.6-3.5.7-3.7.3-.3.4-1.2 1.8-9.2 1.6-9.1 1.8-9.8 2.5-13 .8-3.5 1.7-8.4 3.1-16.7.2-1.3.6-2.6.8-3 .3-.5.8-2.9 1.1-5.5.4-2.6 1.1-6.9 1.6-9.5.6-2.6 1.3-6.2 1.6-7.8.9-5 1.2-6.8 2.4-12.5.6-3 1.3-6.9 1.6-8.5.2-1.7.7-3.7.9-4.5.2-.8.7-3.1 1-5 .3-1.9 1-5.8 1.6-8.7.5-2.8 1.1-6.1 1.2-7.2.1-1.2.4-2.1.7-2.1.3 0 2.5 5.1 4.9 11.3 2.4 6.1 5.2 13 6.2 15.2 2.9 6.5 10 23.9 10.4 25.5 1 3.6 5.5 13.4 5.5 12 .1-.8.1-17 .1-36l-.1-34.5 3.2 5c1.8 2.7 3.6 5.1 4 5.3.5.2.8.7.8 1.1 0 .8 6.2 10.2 35.9 55.1 6.4 9.6 11.8 17.9 12 18.5.2.5.8 1.4 1.3 2 .5.5 3.1 4.5 5.9 8.7 2.8 4.3 5.2 7.8 5.3 7.8.2 0-.5-3.9-1.5-8.8-1.1-4.8-2.1-10.1-2.5-11.7-.3-1.7-1-5-1.5-7.5-.6-2.5-1.2-5.6-1.4-7-.2-1.4-2-10.2-4-19.5-2-9.4-3.8-17.9-4-19-.1-1.1-1.3-6.7-2.5-12.5s-2.4-11.6-2.6-13c-.3-1.4-.7-3.2-.9-4-.2-.8-.7-3.1-1-5-.3-1.9-1-5.2-1.6-7.4-.6-2.1-.8-4-.6-4.3.3-.2 4.2 3.3 8.7 7.9 21.6 22 40.4 40.7 40.7 40.5.2-.3-14.8-36.5-19.2-46.2-1.3-2.8-3.6-8.4-4-9.5-.4-1.2-3.8-8.6-4.3-9.4-.3-.6 1 .1 2.8 1.5 1.9 1.3 4.2 2.8 5.2 3.4 1 .5 6.1 4 11.5 7.7 5.4 3.6 16.3 11.1 24.3 16.5s24.3 16.5 36.3 24.7c12 8.1 22 14.6 22.2 14.4.2-.2-8.2-12.9-18.6-28.2-10.4-15.3-18.9-28.2-18.9-28.7s-.4-.9-.8-.9-1.5-1.3-2.5-2.9c-.9-1.6-7.3-11.1-14.2-21.2-11.7-17.1-14.3-21.5-11.2-19.2.6.6 6.4 3.1 12.7 5.7 12.4 5.2 16.8 7 21.5 9.2 5.6 2.5 25 10.6 26 10.8.6.1 1.7.5 2.5 1s-9.9-10.5-23.9-24.3c-13.9-13.9-25.1-25.4-24.9-25.6.2-.2 3.1.2 6.3 1 5.7 1.3 23.2 4.9 28.5 5.9 6.8 1.3 12.7 2.5 14 3 .8.3 3.3.8 5.5 1.1 2.2.3 5.6 1 7.5 1.5 1.9.5 5.2 1.1 7.4 1.4 2.1.4 4.1.8 4.5 1 .3.3 2.6.7 5.1 1.1 2.5.4 4.8.8 5.1 1.1.4.2 2.4.6 4.5 1 2.1.3 6.7 1.2 10.3 2 12.4 2.7 21.5 4.4 21.8 4 .2-.1-1.3-1.1-3.2-2.2-1.9-1-3.5-2.2-3.5-2.6 0-.5-.6-.8-1.3-.8-.7 0-2.3-.9-3.5-2-1.2-1.1-2.4-2-2.6-2-.3 0-9.9-6.2-21.3-13.8l-20.7-13.7-230.9-.1H81.8l-9.7 6.3z"/></svg>