<?xml version="1.0" encoding="utf-8"?>
<!-- Generator: Adobe Illustrator 16.0.3, SVG Export Plug-In . SVG Version: 6.00 Build 0)  -->
<!DOCTYPE svg PUBLIC "-//W3C//DTD SVG 1.1//EN" "http://www.w3.org/Graphics/SVG/1.1/DTD/svg11.dtd">
<svg version="1.1" id="Layer_1" xmlns="http://www.w3.org/2000/svg" xmlns:xlink="http://www.w3.org/1999/xlink" x="0px" y="0px"
	 width="144.488px" height="156.391px" viewBox="0 0 144.488 156.391" enable-background="new 0 0 144.488 156.391"
	 xml:space="preserve">
<g>
	<g>
		<path fill="#FDC300" d="M30.796,54.629L0,48.272l14.48,9.524h19.567h76.494h19.467l14.48-9.524l-30.708,6.339l-0.088,0.018
			c-1.132-1.988-2.404-3.885-3.802-5.681c-0.005-0.007-0.01-0.015-0.016-0.022l17.662-26.024l-25.944,17.61l-0.078,0.052
			c-1.797-1.397-3.691-2.666-5.678-3.799c-0.008-0.006-0.018-0.013-0.025-0.018l6.358-30.795L84.937,32.151l-0.046,0.069
			c-2.178-0.598-4.417-1.042-6.706-1.327c-0.01-0.001-0.018-0.003-0.027-0.004L72.244,0L66.35,30.797l-0.018,0.092
			c-2.289,0.284-4.524,0.727-6.701,1.323c-0.01,0.003-0.021,0.005-0.032,0.008L42.32,5.953l6.338,30.708l0.019,0.09
			c-1.988,1.131-3.884,2.402-5.68,3.8c-0.008,0.005-0.015,0.01-0.022,0.016L16.951,22.903l17.61,25.947l0.052,0.077
			c-1.398,1.795-2.668,3.69-3.801,5.676C30.807,54.612,30.801,54.62,30.796,54.629z"/>
		<path fill="#FDC300" d="M113.692,101.762l30.796,6.359l-14.482-9.527h-19.564H33.947H14.482L0,108.122l30.711-6.342l0.084-0.018
			c1.133,1.988,2.405,3.884,3.802,5.681c0.005,0.007,0.01,0.016,0.017,0.022l-17.662,26.023l25.946-17.608l0.078-0.053
			c1.794,1.397,3.69,2.667,5.676,3.8c0.009,0.005,0.017,0.012,0.026,0.016L42.32,150.44l17.231-26.197l0.046-0.07
			c2.177,0.599,4.417,1.041,6.706,1.327c0.009,0.001,0.019,0.003,0.027,0.005l5.913,30.887l5.895-30.795l0.019-0.092
			c2.287-0.285,4.524-0.727,6.701-1.324c0.01-0.002,0.022-0.005,0.032-0.008l17.279,26.268l-6.343-30.712l-0.016-0.083
			c1.985-1.133,3.882-2.406,5.681-3.801c0.007-0.006,0.015-0.011,0.022-0.017l26.022,17.661l-17.608-25.946l-0.054-0.077
			c1.396-1.795,2.668-3.691,3.801-5.676C113.68,101.78,113.688,101.771,113.692,101.762z"/>
		<path fill="#FDC300" d="M33.821,70.905h3.546l1.235-6.992c-1.284,0-2.508,0.029-3.679,0.081c-3.589,0.162-6.642,0.57-9.166,1.222
			c-0.339,0.088-0.666,0.18-0.985,0.277c-2.322,0.702-4.146,1.633-5.454,2.802c-0.421,0.377-0.813,0.778-1.184,1.193
			c-1.209,1.348-2.146,2.898-2.824,4.638c-0.624,1.6-1.036,3.355-1.212,5.285c-0.08,0.922-0.101,1.785-0.083,2.607
			c0.024,1.087,0.125,2.097,0.322,3.011c0.229,1.046,0.613,1.995,1.144,2.853c0.514,0.83,1.167,1.574,1.964,2.227
			c0.345,0.279,0.716,0.522,1.1,0.752c1.483,0.885,3.254,1.408,5.317,1.563c0.464,0.035,0.938,0.058,1.433,0.056
			c3.136-0.009,5.727-0.588,7.8-1.713c0.955-0.518,1.81-1.139,2.538-1.893c1.913-1.965,2.81-4.375,2.689-7.231
			c-0.146-3.545-2.026-5.703-5.638-6.474c-0.348-0.073-0.685-0.129-1.019-0.176c-2.608-0.373-4.781,0-6.512,1.131
			c0.149-1.301,0.647-2.358,1.493-3.173C28.063,71.587,30.454,70.905,33.821,70.905z M26.251,80.248
			c0.438-0.013,0.863,0.101,1.275,0.339c0.652,0.396,0.975,1.077,0.999,2.015c0.005,0.228,0.008,0.456-0.022,0.714
			c-0.213,1.953-1.175,2.929-2.889,2.929c-0.13,0-0.246-0.017-0.364-0.032c-0.885-0.115-1.424-0.654-1.605-1.635
			c-0.041-0.219-0.059-0.465-0.065-0.727c-0.002-0.16-0.007-0.319,0.003-0.495C23.702,81.35,24.591,80.315,26.251,80.248z"/>
		<path fill="#FDC300" d="M66.353,92.479l0.816-4.642h3.087l1.514-7.211h-3.326l2.987-16.714h-8.605
			c-1.78,0-3.294,0.645-4.542,1.933L43.922,80.586l-1.275,7.251H57.07l-0.836,4.642H66.353z M53.145,80.885l7.57-8.605l-1.992,8.605
			H53.145z"/>
		<path fill="#FDC300" d="M86.87,92.419l13.706-21.395c0.478-0.757,0.785-1.574,0.916-2.451l0.717-4.661H78.623l-1.354,7.51h12.013
			L75.874,92.419H86.87z"/>
		<path fill="#FDC300" d="M116.414,84.87c-0.943,0.398-2.597,0.598-4.961,0.598c-1.58,0-2.854-0.014-3.825-0.04l-1.235,7.013
			c1.104,0,2.162-0.023,3.181-0.062c3.609-0.14,6.675-0.532,9.203-1.171c0.382-0.096,0.753-0.198,1.111-0.307
			c2.274-0.686,4.058-1.598,5.33-2.744c0.433-0.385,0.831-0.795,1.21-1.222c1.197-1.349,2.124-2.909,2.789-4.677
			c0.6-1.592,0.994-3.344,1.161-5.278c0.086-0.921,0.109-1.783,0.092-2.606c-0.022-1.087-0.125-2.097-0.33-3.011
			c-0.233-1.08-0.595-2.035-1.066-2.879c-0.695-1.238-1.646-2.223-2.853-2.953c-1.486-0.898-3.358-1.416-5.624-1.544
			c-0.406-0.023-0.823-0.037-1.255-0.035c-3.126,0.011-5.722,0.576-7.814,1.673c-0.992,0.52-1.883,1.149-2.644,1.914
			c-1.979,1.966-2.909,4.376-2.79,7.231c0.16,3.546,2.061,5.711,5.698,6.494c0.416,0.089,0.818,0.157,1.213,0.212
			c2.56,0.352,4.686-0.023,6.376-1.127c-0.154,1.354-0.564,2.422-1.219,3.225C117.702,84.14,117.125,84.579,116.414,84.87z
			 M118.207,76.164c-0.439,0.014-0.863-0.105-1.275-0.359c-0.649-0.393-0.973-1.069-0.999-2.001
			c-0.005-0.23-0.009-0.464,0.022-0.728c0.214-1.953,1.184-2.928,2.908-2.928c0.134,0,0.254,0.017,0.375,0.033
			c0.881,0.118,1.412,0.662,1.586,1.642c0.037,0.216,0.054,0.458,0.058,0.715c0.002,0.161,0.006,0.32-0.007,0.498
			C120.756,75.042,119.867,76.084,118.207,76.164z"/>
	</g>
	<g>
		<path fill="#F7941E" d="M17.786,41.742l13.027,12.861c1.133-1.986,2.403-3.882,3.801-5.676l-0.052-0.077L17.786,41.742z"/>
		<path fill="#F7941E" d="M59.552,124.243l-0.146,18.217l6.899-16.96c-2.29-0.286-4.529-0.729-6.706-1.327L59.552,124.243z"/>
		<path fill="#F7941E" d="M42.897,115.88l-7.107,16.774l12.861-13.027c-1.986-1.133-3.881-2.402-5.676-3.8L42.897,115.88z"/>
		<path fill="#F7941E" d="M30.711,101.78l-12.987,12.779l16.873-7.116c-1.397-1.797-2.669-3.692-3.802-5.681L30.711,101.78z"/>
		<path fill="#F7941E" d="M35.882,23.677l7.115,16.873c1.796-1.397,3.692-2.668,5.68-3.8l-0.019-0.089L35.882,23.677z"/>
		<path fill="#F7941E" d="M101.515,40.565l0.078-0.052l7.104-16.775l-12.86,13.027C97.823,37.899,99.718,39.168,101.515,40.565z"/>
		<path fill="#F7941E" d="M113.78,54.611l12.984-12.777l-16.874,7.115c1.397,1.796,2.67,3.693,3.802,5.68L113.78,54.611z"/>
		<path fill="#F7941E" d="M84.891,32.22l0.046-0.069l0.147-18.218l-6.899,16.96C80.474,31.179,82.713,31.623,84.891,32.22z"/>
		<path fill="#F7941E" d="M59.63,32.212c2.177-0.596,4.413-1.039,6.701-1.323l0.018-0.092l-6.835-16.886L59.63,32.212z"/>
		<path fill="#F7941E" d="M109.875,107.465l0.054,0.077l16.771,7.108l-13.024-12.861
			C112.543,103.774,111.271,105.67,109.875,107.465z"/>
		<path fill="#F7941E" d="M95.812,119.645l0.016,0.083l12.781,12.987l-7.116-16.871C99.693,117.239,97.797,118.512,95.812,119.645z"
			/>
		<path fill="#F7941E" d="M78.157,125.504l-0.019,0.092l6.836,16.885l-0.116-18.301C82.682,124.778,80.444,125.219,78.157,125.504z"
			/>
	</g>
</g>
</svg>
